<?xml version="1.0" encoding="UTF-8"?>
<svg width="24px" height="15px" viewBox="0 0 24 15" version="1.1" xmlns="http://www.w3.org/2000/svg" xmlns:xlink="http://www.w3.org/1999/xlink">
    <!-- Generator: Sketch 54.1 (76490) - https://sketchapp.com -->
    <title>Path</title>
    <desc>Created with Sketch.</desc>
    <g id="Page-1" stroke="none" stroke-width="1" fill="none" fill-rule="evenodd">
        <g id="v3-flickr-desktop-with-menu-open" transform="translate(-1338.000000, -360.000000)" fill="#006DAC" fill-rule="nonzero">
            <path d="M1361.2663,367.550407 C1361.2663,367.379801 1361.16047,367.153272 1361.0531,367.043343 L1355.00373,360.776345 C1354.7213,360.491644 1354.26373,360.458651 1353.93445,360.747591 C1353.64007,361.005897 1353.63273,361.509681 1353.90496,361.790179 L1358.76099,366.81298 L1339.33702,366.81298 C1338.91938,366.81298 1338.58084,367.14306 1338.58084,367.55026 C1338.58084,367.95746 1338.91938,368.287577 1339.33702,368.287577 L1358.76099,368.287577 L1353.90496,373.310371 C1353.63277,373.590832 1353.65209,374.082229 1353.93445,374.352921 C1354.23258,374.638691 1354.72561,374.613255 1355.00373,374.324167 L1361.0531,368.057214 C1361.23084,367.887234 1361.26332,367.723521 1361.2663,367.550407 Z" id="Path"></path>
        </g>
    </g>
</svg>