<svg xmlns="http://www.w3.org/2000/svg" width="443" height="95" viewBox="0 0 443 95">
  <path fill="#FFF" fill-rule="evenodd" d="M281.748,-0.0001 L287.976,-0.0001 L287.976,32.2299 L288.174,32.2299 C290.844,26.6939 296.478,22.5419 303.894,22.5419 C317.438,22.5419 321.097,31.5379 321.097,43.9959 L321.097,74.1499 L314.868,74.1499 L314.868,44.0939 C314.868,35.3939 313.187,27.8799 302.905,27.8799 C291.832,27.8799 287.976,38.3599 287.976,47.1599 L287.976,74.1499 L281.748,74.1499 L281.748,-0.0001 Z M367.0699,72.5673 C362.7209,74.3473 357.0849,75.3363 352.4389,75.3363 C335.7299,75.3363 329.5009,64.0653 329.5009,48.9393 C329.5009,33.5153 338.0039,22.5413 350.7579,22.5413 C364.9939,22.5413 370.8269,34.0093 370.8269,47.5543 L370.8269,50.7183 L336.3229,50.7183 C336.3229,61.3963 342.0579,69.9973 352.9329,69.9973 C357.4809,69.9973 364.1049,68.1183 367.0699,66.2403 L367.0699,72.5673 Z M364.0059,45.3793 C364.0059,36.5803 360.4469,27.8793 351.1529,27.8793 C341.9579,27.8793 336.3229,37.0743 336.3229,45.3793 L364.0059,45.3793 Z M381.209,74.1497 L381.209,-0.0003 L387.438,-0.0003 L387.438,74.1497 L381.209,74.1497 Z M400.092,23.7278 L406.32,23.7278 L405.925,32.9218 L406.123,32.9218 C407.705,30.1538 411.561,22.5418 422.238,22.5418 C437.068,22.5418 443,33.6138 443,48.9388 C443,63.8678 436.08,75.3368 422.238,75.3368 C414.329,75.3368 409.583,72.0738 406.519,65.5478 L406.32,65.5478 L406.32,94.9118 L400.092,94.9118 L400.092,23.7278 Z M421.25,27.8798 C410.177,27.8798 406.32,39.7438 406.32,48.9388 C406.32,58.1328 410.177,69.9978 421.25,69.9978 C433.114,69.9978 436.178,58.7258 436.178,48.9388 C436.178,39.1508 433.114,27.8798 421.25,27.8798 Z M10.2158,35.8671 L-0.0002,35.8671 L-0.0002,23.6451 L10.5108,23.6451 L10.5108,20.5421 C10.5108,5.4971 17.5488,0.2531 31.4308,0.2531 C35.1948,0.2531 38.0878,0.8371 40.3028,1.2211 L39.2378,13.2601 C37.7958,12.7741 36.3498,12.4761 33.7398,12.4761 C29.3098,12.4761 27.5788,15.5841 27.5788,20.5421 L27.5788,23.6451 L39.9198,23.6451 L39.9198,35.8671 L27.5788,35.8671 L27.5788,74.2171 L10.2158,74.2171 L10.2158,35.8671 Z M46.864,74.2167 L46.864,1.4067 L64.225,1.4067 L64.225,74.2167 L46.864,74.2167 Z M72.733,15.3967 L72.733,2.5747 L90.082,2.5747 L90.082,15.3967 L72.733,15.3967 Z M72.733,74.2177 L72.733,23.6457 L90.082,23.6457 L90.082,74.2177 L72.733,74.2177 Z M137.3174,38.1049 C134.1324,36.1699 130.9604,35.2989 126.8114,35.2989 C119.2854,35.2989 113.5024,40.5439 113.5024,49.2779 C113.5024,57.3229 120.2494,62.5659 127.7754,62.5659 C131.7294,62.5659 135.6824,61.6979 138.5774,60.1439 L138.9604,73.1509 C134.6244,74.6029 129.4144,75.3869 124.7804,75.3869 C108.1984,75.3869 95.5674,65.6719 95.5674,48.9769 C95.5674,32.1799 108.1984,22.4779 124.7804,22.4779 C129.9914,22.4779 134.6244,23.3599 138.5774,25.2989 L137.3174,38.1049 Z M146.1909,1.4071 L163.5489,1.4071 L163.5489,44.9021 L163.7369,44.9021 L178.2039,23.6451 L197.1969,23.6451 L179.7489,46.8521 L198.6429,74.2171 L177.6269,74.2171 L163.7369,49.1721 L163.5489,49.1721 L163.5489,74.2171 L146.1909,74.2171 L146.1909,1.4071 Z M239.5645,37.621 C237.6365,37.034 235.7105,37.034 233.6835,37.034 C225.5815,37.034 221.0445,42.963 221.0445,52.867 L221.0445,74.217 L203.6995,74.217 L203.6995,23.645 L219.5115,23.645 L219.5115,32.964 L219.6965,32.964 C222.6905,26.552 227.0335,22.477 234.5525,22.477 C236.5755,22.477 238.7015,22.763 240.4285,23.064 L239.5645,37.621 Z"/>
</svg>
