<?xml version="1.0" encoding="UTF-8"?>
<svg width="16px" height="16px" viewBox="0 0 16 16" version="1.1" xmlns="http://www.w3.org/2000/svg" xmlns:xlink="http://www.w3.org/1999/xlink">
    <!-- Generator: Sketch 54.1 (76490) - https://sketchapp.com -->
    <title>Fill 1</title>
    <desc>Created with Sketch.</desc>
    <g id="Page-1" stroke="none" stroke-width="1" fill="none" fill-rule="evenodd">
        <g id="v2-MOBILE_contact" transform="translate(-75.000000, -118.000000)" fill="#9B9B9B">
            <path d="M90.7594949,132.614497 L87.7782048,129.660095 C90.0409931,126.837732 89.8278118,122.685649 87.2457841,120.103674 C85.8876852,118.745575 84.1042353,118 82.1877868,118 C80.2713383,118 78.4608415,118.745602 77.1026361,120.102636 C75.7455754,121.460735 75,123.244185 75,125.187787 C75,127.131389 75.745602,128.914732 77.1026361,130.272938 C78.460735,131.603989 80.2441848,132.375574 82.1877868,132.375574 C83.8120961,132.375574 85.4094648,131.816106 86.6603874,130.805358 L89.6158551,133.760826 C89.7759966,133.920967 89.9621416,134 90.1753228,134 C90.3884988,134 90.6016854,133.919929 90.7347906,133.760826 C91.0529918,133.440548 91.0529918,132.935148 90.7597478,132.61487 L90.7594949,132.614497 Z M87.7782048,125.18776 C87.7782048,126.678964 87.192755,128.088921 86.1279134,129.12794 C85.0630719,130.165735 83.6789909,130.778231 82.1877336,130.778231 C80.6964762,130.778231 79.2865728,130.192782 78.2475537,129.12794 C77.2097591,128.063099 76.5972623,126.679017 76.5972623,125.18776 C76.5972623,123.696503 77.1827122,122.286599 78.2475537,121.24758 C79.3123952,120.209786 80.6704941,119.597289 82.1877336,119.597289 C83.6789376,119.597289 85.0888943,120.182739 86.1279134,121.24758 C87.165708,122.312422 87.7782048,123.670521 87.7782048,125.18776 Z" id="Fill-1"></path>
        </g>
    </g>
</svg>