<?xml version="1.0" encoding="UTF-8"?>
<svg width="20px" height="16px" viewBox="0 0 20 16" version="1.1" xmlns="http://www.w3.org/2000/svg" xmlns:xlink="http://www.w3.org/1999/xlink">
    <!-- Generator: Sketch 54.1 (76490) - https://sketchapp.com -->
    <title>Logo__x2014__FIXED</title>
    <desc>Created with Sketch.</desc>
    <g id="Page-1" stroke="none" stroke-width="1" fill="none" fill-rule="evenodd">
        <g id="Logo__x2014__FIXED" fill="#FFFFFF" fill-rule="nonzero">
            <path d="M6.16470588,15.9686275 C13.5607843,15.9686275 17.6078431,9.83529412 17.6078431,4.5254902 C17.6078431,4.35294118 17.6078431,4.18039216 17.6,4.00784314 C18.3843137,3.44313725 19.0666667,2.72941176 19.6078431,1.92156863 C18.8862745,2.24313725 18.1098039,2.45490196 17.2941176,2.55686275 C18.1254902,2.0627451 18.7607843,1.27058824 19.0666667,0.329411765 C18.2901961,0.792156863 17.427451,1.12156863 16.5098039,1.30196078 C15.772549,0.517647059 14.7294118,0.031372549 13.5764706,0.031372549 C11.3568627,0.031372549 9.55294118,1.83529412 9.55294118,4.05490196 C9.55294118,4.36862745 9.59215686,4.6745098 9.65490196,4.97254902 C6.31372549,4.80784314 3.34901961,3.2 1.36470588,0.768627451 C1.01960784,1.36470588 0.823529412,2.05490196 0.823529412,2.79215686 C0.823529412,4.18823529 1.5372549,5.41960784 2.61176471,6.14117647 C1.95294118,6.11764706 1.33333333,5.9372549 0.792156863,5.63921569 C0.792156863,5.65490196 0.792156863,5.67058824 0.792156863,5.69411765 C0.792156863,7.63921569 2.18039216,9.27058824 4.01568627,9.63921569 C3.67843137,9.73333333 3.3254902,9.78039216 2.95686275,9.78039216 C2.69803922,9.78039216 2.44705882,9.75686275 2.20392157,9.70980392 C2.71372549,11.3098039 4.20392157,12.4705882 5.96078431,12.5019608 C4.58039216,13.5843137 2.84705882,14.227451 0.964705882,14.227451 C0.643137255,14.227451 0.321568627,14.2117647 0.00784313725,14.172549 C1.78039216,15.3019608 3.89803922,15.9686275 6.16470588,15.9686275" id="Path"></path>
        </g>
    </g>
</svg>